# xmcd
# 
# Track frame offsets:
#     150
#     28950
#     57450
# 
# Disc length: 1146
# 
# Revision: 1
# Processed by: cddbd v1.5.2PL0 Copyright (c) Steve Scherf et al.
# Submitted via: fre:ac v1.0.27
# 
DISCID=26047803
DTITLE=Saijo Hideki - moment
DYEAR=1997
DGENRE=Pop
TTITLE0=moment
TTITLE1=moment (acoustic version)
TTITLE2=moment (instrumental)
EXTD=
EXTT0=
EXTT1=
EXTT2=
PLAYORDER=
